<svg width="14" height="15" viewBox="0 0 14 15" fill="none" xmlns="http://www.w3.org/2000/svg">
<g clip-path="url(#clip0_648_1029)">
<path d="M3.58456 3.22474C3.58456 2.997 3.67503 2.77859 3.83606 2.61755C3.9971 2.45652 4.2155 2.36605 4.44324 2.36605H9.59535C9.82309 2.36605 10.0415 2.45652 10.2025 2.61755C10.3636 2.77859 10.454 2.997 10.454 3.22474V4.08342C10.454 4.31116 10.3636 4.52957 10.2025 4.6906C10.0415 4.85164 9.82309 4.94211 9.59535 4.94211H4.44324C4.2155 4.94211 3.9971 4.85164 3.83606 4.6906C3.67503 4.52957 3.58456 4.31116 3.58456 4.08342V3.22474ZM4.44324 3.22474V4.08342H9.59535V3.22474H4.44324ZM1.86719 2.36605V12.6703C1.86719 13.1257 2.04812 13.5626 2.37019 13.8846C2.69226 14.2067 3.12908 14.3876 3.58456 14.3876H11.7421C11.8559 14.3876 11.9651 14.3424 12.0457 14.2619C12.1262 14.1814 12.1714 14.0722 12.1714 13.9583C12.1714 13.8444 12.1262 13.7352 12.0457 13.6547C11.9651 13.5742 11.8559 13.529 11.7421 13.529H3.58456C3.35682 13.529 3.13841 13.4385 2.97738 13.2775C2.81634 13.1164 2.72587 12.898 2.72587 12.6703H11.3127C11.5405 12.6703 11.7589 12.5798 11.9199 12.4188C12.0809 12.2577 12.1714 12.0393 12.1714 11.8116V2.36605C12.1714 1.91058 11.9905 1.47376 11.6684 1.15169C11.3463 0.829618 10.9095 0.648682 10.454 0.648682H3.58456C3.12908 0.648682 2.69226 0.829618 2.37019 1.15169C2.04812 1.47376 1.86719 1.91058 1.86719 2.36605ZM10.454 1.50737C10.6818 1.50737 10.9002 1.59783 11.0612 1.75887C11.2223 1.9199 11.3127 2.13831 11.3127 2.36605V11.8116H2.72587V2.36605C2.72587 2.13831 2.81634 1.9199 2.97738 1.75887C3.13841 1.59783 3.35682 1.50737 3.58456 1.50737H10.454Z" fill="white"/>
</g>
<defs>
<clipPath id="clip0_648_1029">
<rect width="14" height="14" fill="white" transform="translate(0 0.5)"/>
</clipPath>
</defs>
</svg>
