<svg width="21" height="21" viewBox="0 0 21 21" fill="none" xmlns="http://www.w3.org/2000/svg">
<g clip-path="url(#clip0_651_1144)">
<path d="M15.623 10.2682C15.7769 10.499 15.9307 10.7297 16.0077 11.1144H13.5461C13.5461 11.0374 13.5461 10.8836 13.623 10.7297C13.7 10.5759 13.7 10.499 13.8538 10.3451C13.9307 10.1913 14.0846 10.1144 14.2384 10.0374C14.3923 9.96051 14.623 9.88358 14.8538 9.88358C15.1615 9.96051 15.4692 10.0374 15.623 10.2682ZM8.54612 9.72974C8.69997 9.57589 8.85382 9.34512 8.85382 9.03743C8.85382 8.88358 8.85382 8.72974 8.77689 8.57589C8.69997 8.49897 8.62305 8.34512 8.54612 8.34512C8.4692 8.2682 8.31535 8.2682 8.16151 8.19127H6.16151V9.96051H7.85382C8.08459 9.96051 8.31535 9.88358 8.54612 9.72974ZM7.93074 11.0374H6.16151V13.1144H7.93074C8.08459 13.1144 8.23843 13.1144 8.39228 13.0374C8.54612 13.0374 8.69997 12.9605 8.77689 12.8836C8.85382 12.8067 9.00766 12.7297 9.08459 12.5759C9.16151 12.422 9.16151 12.2682 9.16151 12.1144C9.16151 11.7297 9.08459 11.422 8.85382 11.2682C8.62305 11.1144 8.31535 11.0374 7.93074 11.0374ZM20.623 4.49897V16.9605C20.623 19.0374 18.9307 20.7297 16.8538 20.7297H4.39228C2.31535 20.7297 0.623047 19.0374 0.623047 16.9605V4.49897C0.623047 2.42204 2.31535 0.729736 4.39228 0.729736H16.8538C18.9307 0.729736 20.623 2.42204 20.623 4.49897ZM13.2384 8.11435H16.3154V7.34512H13.2384V8.11435ZM10.7769 12.2682C10.7769 11.8067 10.7 11.422 10.4692 11.0374C10.2384 10.7297 9.93074 10.499 9.4692 10.3451C9.77689 10.1913 10.0846 9.96051 10.2384 9.72974C10.3923 9.49897 10.4692 9.19127 10.4692 8.80666C10.4692 8.42204 10.3923 8.19128 10.3154 7.88358C10.1615 7.65281 10.0077 7.42204 9.85382 7.34512C9.62305 7.19128 9.39228 7.11435 9.08459 7.03743C8.69997 6.88358 8.39228 6.88358 8.00766 6.88358H4.4692V14.422H8.16151C8.4692 14.422 8.85382 14.3451 9.16151 14.2682C9.4692 14.1913 9.77689 14.0374 10.0077 13.8836C10.2384 13.7297 10.4692 13.499 10.623 13.1913C10.7 12.9605 10.7769 12.6528 10.7769 12.2682ZM13.5461 12.0374H17.4692C17.4692 11.5759 17.4692 11.1913 17.3923 10.8067C17.3154 10.422 17.1615 10.0374 16.9307 9.80666C16.7 9.49897 16.3923 9.2682 16.0846 9.11435C15.7 8.96051 15.3154 8.80666 14.8538 8.80666C14.4692 8.80666 14.0846 8.88358 13.7 9.03743C13.3923 9.19127 13.0846 9.42204 12.7769 9.65281C12.5461 9.88358 12.3154 10.1913 12.2384 10.5759C12.0846 10.9605 12.0077 11.3451 12.0077 11.7297C12.0077 12.1144 12.0846 12.5759 12.2384 12.8836C12.3923 13.2682 12.5461 13.5759 12.7769 13.8067C13.0077 14.0374 13.3154 14.2682 13.623 14.422C14.0077 14.5759 14.3923 14.6528 14.7769 14.6528C15.3923 14.6528 15.9307 14.499 16.3923 14.1913C16.8538 13.8836 17.1615 13.422 17.3923 12.8067H16.0846C16.0077 12.9605 15.9307 13.1144 15.7 13.2682C15.4692 13.422 15.2384 13.499 14.9307 13.499C14.5461 13.499 14.1615 13.422 13.9307 13.1913C13.7 12.8836 13.5461 12.499 13.5461 12.0374Z" fill="white"/>
</g>
<defs>
<clipPath id="clip0_651_1144">
<rect width="20" height="20" fill="white" transform="translate(0.623047 0.729736)"/>
</clipPath>
</defs>
</svg>
