<svg width="40" height="40" viewBox="0 0 40 40" fill="none" xmlns="http://www.w3.org/2000/svg">
<path d="M26.1953 4.11749C26.2435 3.96056 26.2604 3.79566 26.245 3.63221C26.2295 3.46875 26.182 3.30995 26.1051 3.16486C26.0283 3.01977 25.9236 2.89123 25.7971 2.78659C25.6706 2.68195 25.5247 2.60325 25.3678 2.55499C25.2109 2.50673 25.046 2.48985 24.8825 2.50532C24.719 2.52078 24.5602 2.56829 24.4152 2.64513C24.2701 2.72197 24.1415 2.82664 24.0369 2.95316C23.9322 3.07967 23.8535 3.22556 23.8053 3.38249L13.8053 35.8825C13.7078 36.1994 13.7402 36.5421 13.8954 36.8351C14.0506 37.1281 14.3158 37.3475 14.6328 37.445C14.9497 37.5425 15.2924 37.51 15.5854 37.3548C15.8784 37.1997 16.0978 36.9344 16.1953 36.6175L26.1953 4.11749ZM12.1353 10.365C12.2517 10.4811 12.344 10.619 12.4071 10.7709C12.4701 10.9228 12.5025 11.0856 12.5025 11.25C12.5025 11.4144 12.4701 11.5772 12.4071 11.7291C12.344 11.8809 12.2517 12.0189 12.1353 12.135L4.26778 20L12.1353 27.865C12.37 28.0997 12.5019 28.4181 12.5019 28.75C12.5019 29.0819 12.37 29.4003 12.1353 29.635C11.9006 29.8697 11.5822 30.0016 11.2503 30.0016C10.9183 30.0016 10.6 29.8697 10.3653 29.635L1.61528 20.885C1.49887 20.7689 1.40652 20.6309 1.3435 20.4791C1.28048 20.3272 1.24805 20.1644 1.24805 20C1.24805 19.8356 1.28048 19.6728 1.3435 19.5209C1.40652 19.369 1.49887 19.2311 1.61528 19.115L10.3653 10.365C10.4814 10.2486 10.6193 10.1562 10.7712 10.0932C10.9231 10.0302 11.0859 9.99775 11.2503 9.99775C11.4147 9.99775 11.5775 10.0302 11.7294 10.0932C11.8812 10.1562 12.0192 10.2486 12.1353 10.365ZM27.8653 10.365C27.7489 10.4811 27.6565 10.619 27.5935 10.7709C27.5305 10.9228 27.498 11.0856 27.498 11.25C27.498 11.4144 27.5305 11.5772 27.5935 11.7291C27.6565 11.8809 27.7489 12.0189 27.8653 12.135L35.7328 20L27.8653 27.865C27.7491 27.9812 27.6569 28.1192 27.594 28.271C27.5311 28.4229 27.4987 28.5856 27.4987 28.75C27.4987 28.9143 27.5311 29.0771 27.594 29.2289C27.6569 29.3808 27.7491 29.5188 27.8653 29.635C27.9815 29.7512 28.1195 29.8434 28.2713 29.9063C28.4232 29.9692 28.5859 30.0016 28.7503 30.0016C28.9146 30.0016 29.0774 29.9692 29.2292 29.9063C29.3811 29.8434 29.5191 29.7512 29.6353 29.635L38.3853 20.885C38.5017 20.7689 38.594 20.6309 38.6571 20.4791C38.7201 20.3272 38.7525 20.1644 38.7525 20C38.7525 19.8356 38.7201 19.6728 38.6571 19.5209C38.594 19.369 38.5017 19.2311 38.3853 19.115L29.6353 10.365C29.5192 10.2486 29.3812 10.1562 29.2294 10.0932C29.0775 10.0302 28.9147 9.99775 28.7503 9.99775C28.5859 9.99775 28.4231 10.0302 28.2712 10.0932C28.1193 10.1562 27.9814 10.2486 27.8653 10.365Z" fill="white"/>
</svg>
