<svg width="30" height="30" viewBox="0 0 30 30" fill="none" xmlns="http://www.w3.org/2000/svg">
<path d="M18.2817 20.6924H16.1108V13.5937C16.1108 13.4648 16.0054 13.3594 15.8765 13.3594H14.1186C13.9897 13.3594 13.8843 13.4648 13.8843 13.5937V20.6924H11.7192C11.5229 20.6924 11.4145 20.918 11.5347 21.0703L14.8159 25.2217C14.8378 25.2497 14.8658 25.2723 14.8978 25.2879C14.9298 25.3035 14.9649 25.3116 15.0005 25.3116C15.036 25.3116 15.0712 25.3035 15.1031 25.2879C15.1351 25.2723 15.1631 25.2497 15.185 25.2217L18.4663 21.0703C18.5864 20.918 18.478 20.6924 18.2817 20.6924V20.6924Z" fill="white"/>
<path d="M23.7715 10.7432C22.4297 7.2041 19.0107 4.6875 15.0059 4.6875C11.001 4.6875 7.58203 7.20117 6.24023 10.7402C3.72949 11.3994 1.875 13.6875 1.875 16.4062C1.875 19.6436 4.49707 22.2656 7.73145 22.2656H8.90625C9.03516 22.2656 9.14062 22.1602 9.14062 22.0312V20.2734C9.14062 20.1445 9.03516 20.0391 8.90625 20.0391H7.73145C6.74414 20.0391 5.81543 19.6465 5.12402 18.9346C4.43555 18.2256 4.06934 17.2705 4.10156 16.2803C4.12793 15.5068 4.3916 14.7803 4.86914 14.168C5.3584 13.5439 6.04395 13.0898 6.80566 12.8877L7.91602 12.5977L8.32324 11.5254C8.5752 10.8574 8.92676 10.2334 9.36914 9.66797C9.80587 9.10754 10.3232 8.61489 10.9043 8.20605C12.1084 7.35938 13.5264 6.91113 15.0059 6.91113C16.4854 6.91113 17.9033 7.35938 19.1074 8.20605C19.6904 8.61621 20.2061 9.1084 20.6426 9.66797C21.085 10.2334 21.4365 10.8604 21.6885 11.5254L22.0928 12.5947L23.2002 12.8877C24.7881 13.3154 25.8984 14.7598 25.8984 16.4062C25.8984 17.376 25.5205 18.29 24.835 18.9756C24.4988 19.3138 24.0988 19.5819 23.6583 19.7644C23.2178 19.947 22.7454 20.0403 22.2686 20.0391H21.0938C20.9648 20.0391 20.8594 20.1445 20.8594 20.2734V22.0312C20.8594 22.1602 20.9648 22.2656 21.0938 22.2656H22.2686C25.5029 22.2656 28.125 19.6436 28.125 16.4062C28.125 13.6904 26.2764 11.4053 23.7715 10.7432Z" fill="white"/>
</svg>
