<svg width="18" height="18" viewBox="0 0 18 18" fill="none" xmlns="http://www.w3.org/2000/svg">
<path d="M7.94962 2.69997C7.14847 2.69997 6.40087 2.92362 5.76352 3.31317C5.69764 2.9608 5.57757 2.62077 5.40757 2.30517C6.20693 1.8628 7.10789 1.63669 8.0214 1.64918C8.93492 1.66167 9.82936 1.91234 10.6163 2.37639C11.4033 2.84045 12.0555 3.50184 12.5086 4.29518C12.9617 5.08853 13.1999 5.98637 13.1996 6.89997H15.8257C16.2432 6.90025 16.6436 7.06631 16.9387 7.36165C17.2338 7.65699 17.3996 8.05744 17.3996 8.47498V14.775C17.3996 15.1927 17.2337 15.5933 16.9383 15.8887C16.643 16.1841 16.2423 16.35 15.8246 16.35H9.52462C9.10691 16.35 8.7063 16.1841 8.41093 15.8887C8.11556 15.5933 7.94962 15.1927 7.94962 14.775V12.15C7.21922 12.1509 6.49672 11.9989 5.82862 11.7037C5.84227 11.3467 5.84962 10.9719 5.84962 10.575V10.5382C6.46702 10.8952 7.18417 11.1 7.94962 11.1V8.47498C7.94962 8.05726 8.11556 7.65665 8.41093 7.36128C8.7063 7.06591 9.10691 6.89997 9.52462 6.89997H12.1496C12.1496 5.78606 11.7071 4.71777 10.9195 3.93012C10.1318 3.14247 9.06353 2.69997 7.94962 2.69997ZM13.0946 7.94998C12.8881 8.95857 12.3899 9.88431 11.6619 10.6123C10.934 11.3403 10.0082 11.8385 8.99962 12.045V14.775C8.99962 14.9142 9.05493 15.0478 9.15339 15.1462C9.25185 15.2447 9.38538 15.3 9.52462 15.3H15.8246C15.9639 15.3 16.0974 15.2447 16.1959 15.1462C16.2943 15.0478 16.3496 14.9142 16.3496 14.775V8.47498C16.3496 8.33574 16.2943 8.2022 16.1959 8.10374C16.0974 8.00529 15.9639 7.94998 15.8246 7.94998H13.0946ZM12.0173 7.94998H9.52462C9.38538 7.94998 9.25185 8.00529 9.15339 8.10374C9.05493 8.2022 8.99962 8.33574 8.99962 8.47498V10.9677C9.72603 10.7795 10.3889 10.4004 10.9195 9.86984C11.4501 9.33924 11.8291 8.67638 12.0173 7.94998ZM3.30966 0.731214C3.39682 0.807446 3.45632 0.910352 3.47892 1.02391C3.50152 1.13748 3.48594 1.25533 3.43461 1.35912C3.42572 1.38983 3.42113 1.42164 3.42096 1.45362C3.42096 1.51977 3.43776 1.64577 3.59631 1.80327C3.67296 1.87992 3.73176 1.93452 3.79581 1.99437C3.84831 2.04267 3.90396 2.09307 3.97431 2.16237C4.11082 2.29257 4.25467 2.44587 4.38382 2.63802C4.65157 3.04017 4.79962 3.54312 4.79962 4.27497C4.79962 5.17062 4.46782 5.93397 3.95016 6.40227L4.01736 6.47997C4.31137 6.84117 4.48252 7.30947 4.58962 7.77147C4.79962 8.68498 4.79962 9.78328 4.79962 10.5487V10.575C4.79962 13.5013 4.40167 15.1614 3.96381 16.1106C3.74331 16.5883 3.50916 16.8928 3.30651 17.0839C3.22412 17.163 3.13328 17.2327 3.03561 17.2918C2.9909 17.3188 2.94421 17.3423 2.89596 17.3622C2.89596 17.3622 2.77731 17.4 2.69961 17.4C2.62191 17.4 2.50326 17.3622 2.50326 17.3622C2.45449 17.3434 2.40771 17.3199 2.36361 17.2918C2.26595 17.2327 2.1751 17.163 2.09271 17.0839C1.89006 16.8918 1.65591 16.5883 1.43541 16.1106C0.99756 15.1614 0.599609 13.5013 0.599609 10.575V10.5487C0.599609 9.78223 0.599609 8.68498 0.80961 7.77147C0.91671 7.30947 1.08786 6.84117 1.38186 6.47997C1.40286 6.45372 1.42596 6.42747 1.44906 6.40227C0.93141 5.93397 0.599609 5.17062 0.599609 4.27497C0.599609 3.93267 0.69096 3.52422 0.81696 3.14727C0.94296 2.76927 1.11936 2.37867 1.32306 2.06367C1.56561 1.65417 1.90686 1.31082 2.17146 1.07981C2.31653 0.952236 2.46792 0.832034 2.62506 0.719664L2.65656 0.698664L2.66601 0.691314L2.66916 0.689214L2.67126 0.688164C2.76754 0.623985 2.88233 0.593411 2.99778 0.601196C3.11323 0.608981 3.22287 0.654689 3.30966 0.731214ZM2.69961 5.84997C3.10596 5.84892 3.74961 5.39847 3.74961 4.27497C3.74961 3.69432 3.63516 3.40977 3.50916 3.22077C3.43255 3.11038 3.34419 3.00863 3.24561 2.91732L3.11541 2.79552C3.03036 2.71572 2.93061 2.62332 2.85291 2.54667C2.73807 2.43302 2.63949 2.30405 2.55996 2.16342C2.42631 2.30395 2.30869 2.4589 2.20926 2.62542C2.06226 2.85117 1.91946 3.16092 1.81341 3.48012C1.70421 3.80562 1.64961 4.09332 1.64961 4.27497C1.64961 5.40057 2.29536 5.84997 2.69961 5.84997H2.70171H2.69961ZM2.19561 7.14357C2.04651 7.32522 1.92261 7.61503 1.83231 8.00773C1.65171 8.79313 1.64961 9.78013 1.64961 10.575C1.64961 13.4236 2.03916 14.9136 2.38881 15.6706C2.50431 15.9195 2.61246 16.0854 2.69961 16.1956C2.78676 16.0854 2.89596 15.9195 3.01041 15.6706C3.36006 14.9136 3.74961 13.4236 3.74961 10.575C3.74961 9.78013 3.74751 8.79313 3.56586 8.00773C3.47556 7.61503 3.35166 7.32522 3.20361 7.14357C3.1457 7.0651 3.06954 7.00191 2.98173 6.95947C2.89392 6.91702 2.79709 6.8966 2.69961 6.89997H2.69751C2.60037 6.89686 2.50394 6.9174 2.4165 6.95984C2.32907 7.00228 2.25326 7.06533 2.19561 7.14357Z" fill="white"/>
</svg>
