<svg width="28" height="27" viewBox="0 0 28 27" fill="none" xmlns="http://www.w3.org/2000/svg">
<g clip-path="url(#clip0_660_1453)">
<path fill-rule="evenodd" clip-rule="evenodd" d="M14.0896 0.0141602C6.76979 0.0141602 0.829102 5.95485 0.829102 13.2746C0.829102 20.5944 6.76979 26.5351 14.0896 26.5351C21.3961 26.5351 27.35 20.5944 27.35 13.2746C27.35 5.95485 21.3961 0.0141602 14.0896 0.0141602ZM22.8481 6.12723C24.4805 8.1151 25.3841 10.6014 25.409 13.1735C25.0344 13.1022 21.295 12.3398 17.5273 12.8138C17.4411 12.6282 17.3682 12.4259 17.282 12.2254C17.0516 11.6784 16.793 11.1181 16.5345 10.5844C17.0558 10.3724 17.5416 10.1488 17.9931 9.91902C21.1539 8.31072 22.6351 6.40404 22.8497 6.12557L22.8481 6.12723ZM14.0896 1.97008C16.9654 1.97008 19.5976 3.04749 21.5983 4.81776C21.3961 5.10618 19.6838 7.39195 15.6576 8.90198C13.8143 5.51815 11.7748 2.74223 11.4362 2.28125C11.4337 2.27797 11.4314 2.2748 11.4292 2.27175C12.3012 2.06813 13.1941 1.96689 14.0896 1.97008ZM9.27104 3.03423C10.7888 5.13775 12.191 7.32232 13.4713 9.57827C8.17871 10.9872 3.5044 10.959 3.0005 10.959C3.36492 9.24464 4.12044 7.63763 5.20812 6.26329C6.2958 4.88895 7.68626 3.78443 9.27104 3.03589V3.03423ZM2.75684 13.2912V12.9431C3.24582 12.9597 8.74062 13.031 14.3929 11.3336C14.7227 11.9651 15.0244 12.6133 15.3128 13.2597L14.8653 13.389C9.02738 15.2736 5.92112 20.422 5.66088 20.8546C3.79086 18.7787 2.75626 16.0835 2.75684 13.2895V13.2912ZM14.0896 24.6073C11.5726 24.6113 9.12714 23.7708 7.14439 22.2205C7.3433 21.8028 9.64565 17.3738 16.0306 15.1443C16.0604 15.1294 16.0737 15.1294 16.1035 15.1162C17.1799 17.8948 17.9886 20.7699 18.5186 23.7023C17.1196 24.3034 15.6122 24.6115 14.0896 24.6073ZM20.4049 22.6663L20.4047 22.6653C20.2882 21.972 19.6831 18.6664 18.2036 14.5973C21.7558 14.0371 24.862 14.957 25.2499 15.0863C25.0083 16.6157 24.453 18.0785 23.6189 19.383C22.7852 20.687 21.6909 21.8045 20.4047 22.6653L20.4032 22.6663H20.4049Z" fill="white"/>
</g>
<defs>
<clipPath id="clip0_660_1453">
<rect width="26.5209" height="26.5209" fill="white" transform="translate(0.829102 0.0141602)"/>
</clipPath>
</defs>
</svg>
