<svg width="14" height="15" viewBox="0 0 14 15" fill="none" xmlns="http://www.w3.org/2000/svg">
<g clip-path="url(#clip0_648_1017)">
<path fill-rule="evenodd" clip-rule="evenodd" d="M2.24961 0.850037H11.7496C12.2535 0.850037 12.7368 1.05021 13.0931 1.40653C13.4494 1.76285 13.6496 2.24613 13.6496 2.75004V12.25C13.6496 12.7539 13.4494 13.2372 13.0931 13.5935C12.7368 13.9499 12.2535 14.15 11.7496 14.15H2.24961C1.7457 14.15 1.26243 13.9499 0.906106 13.5935C0.549787 13.2372 0.349609 12.7539 0.349609 12.25V2.75004C0.349609 2.24613 0.549787 1.76285 0.906106 1.40653C1.26243 1.05021 1.7457 0.850037 2.24961 0.850037V0.850037Z" stroke="white" stroke-width="1.32231" stroke-linecap="round" stroke-linejoin="round"/>
<path d="M4.14941 11.2383V3.70007" stroke="white" stroke-width="1.32231" stroke-linecap="round" stroke-linejoin="round"/>
<path d="M7 11.2857V7.5" stroke="white" stroke-width="1.32231" stroke-linecap="round" stroke-linejoin="round"/>
<path d="M9.84961 11.3V5.59998" stroke="white" stroke-width="1.32231" stroke-linecap="round" stroke-linejoin="round"/>
</g>
<defs>
<clipPath id="clip0_648_1017">
<rect width="14" height="14" fill="white" transform="translate(0 0.5)"/>
</clipPath>
</defs>
</svg>
