<svg width="21" height="21" viewBox="0 0 21 21" fill="none" xmlns="http://www.w3.org/2000/svg">
<path d="M10.2704 6.31885C9.25669 6.31885 8.28451 6.72154 7.56772 7.43833C6.85093 8.15512 6.44824 9.12729 6.44824 10.141C6.44824 11.1547 6.85093 12.1269 7.56772 12.8437C8.28451 13.5604 9.25669 13.9631 10.2704 13.9631C11.2841 13.9631 12.2563 13.5604 12.973 12.8437C13.6898 12.1269 14.0925 11.1547 14.0925 10.141C14.0925 9.12729 13.6898 8.15512 12.973 7.43833C12.2563 6.72154 11.2841 6.31885 10.2704 6.31885ZM10.2704 12.6232C9.61183 12.6232 8.98025 12.3616 8.51459 11.896C8.04892 11.4303 7.78731 10.7987 7.78731 10.1402C7.78731 9.48161 8.04892 8.85003 8.51459 8.38437C8.98025 7.9187 9.61183 7.65709 10.2704 7.65709C10.9289 7.65709 11.5605 7.9187 12.0262 8.38437C12.4918 8.85003 12.7535 9.48161 12.7535 10.1402C12.7535 10.7987 12.4918 11.4303 12.0262 11.896C11.5605 12.3616 10.9289 12.6232 10.2704 12.6232Z" fill="white"/>
<path d="M14.2446 7.06923C14.7367 7.06923 15.1356 6.67029 15.1356 6.17817C15.1356 5.68605 14.7367 5.28711 14.2446 5.28711C13.7525 5.28711 13.3535 5.68605 13.3535 6.17817C13.3535 6.67029 13.7525 7.06923 14.2446 7.06923Z" fill="white"/>
<path d="M17.3249 5.27246C17.1335 4.77831 16.8411 4.32956 16.4663 3.95493C16.0916 3.5803 15.6427 3.28805 15.1485 3.09688C14.5702 2.87978 13.9592 2.76239 13.3416 2.74971C12.5456 2.715 12.2935 2.70508 10.2749 2.70508C8.2564 2.70508 7.99768 2.70508 7.20829 2.74971C6.59115 2.76175 5.9806 2.87916 5.40302 3.09688C4.90867 3.28782 4.45969 3.58 4.08489 3.95465C3.71009 4.32931 3.41774 4.77818 3.22661 5.27246C3.00947 5.85075 2.89235 6.46179 2.88027 7.07938C2.84473 7.87456 2.83398 8.12667 2.83398 10.146C2.83398 12.1645 2.83398 12.4216 2.88027 13.2127C2.89267 13.831 3.00922 14.441 3.22661 15.0204C3.41828 15.5145 3.71091 15.9632 4.0858 16.3378C4.46069 16.7124 4.9096 17.0047 5.40385 17.196C5.98034 17.4218 6.59113 17.5476 7.20994 17.568C8.00594 17.6027 8.25805 17.6134 10.2766 17.6134C12.2951 17.6134 12.5538 17.6134 13.3432 17.568C13.9608 17.5554 14.5717 17.4383 15.1501 17.2216C15.6442 17.03 16.093 16.7375 16.4677 16.3628C16.8424 15.988 17.1349 15.5393 17.3265 15.0452C17.5439 14.4666 17.6605 13.8566 17.6729 13.2383C17.7084 12.4431 17.7192 12.191 17.7192 10.1716C17.7192 8.15229 17.7192 7.89605 17.6729 7.10501C17.6633 6.47868 17.5455 5.85872 17.3249 5.27246ZM16.3181 13.1515C16.3128 13.6279 16.2258 14.0998 16.061 14.5468C15.9369 14.8682 15.7469 15.1601 15.5032 15.4037C15.2594 15.6473 14.9674 15.8371 14.6459 15.9611C14.2039 16.1251 13.737 16.2121 13.2655 16.2181C12.4803 16.2545 12.2587 16.2636 10.2452 16.2636C8.22995 16.2636 8.02413 16.2636 7.22399 16.2181C6.75278 16.2124 6.28608 16.1254 5.84442 15.9611C5.52179 15.8379 5.22861 15.6484 4.98385 15.4047C4.73909 15.1611 4.54819 14.8688 4.42351 14.5468C4.26104 14.1046 4.17414 13.6382 4.16644 13.1672C4.1309 12.3819 4.12263 12.1604 4.12263 10.1468C4.12263 8.13245 4.12263 7.92663 4.16644 7.12567C4.17179 6.64957 4.25874 6.17792 4.42351 5.73122C4.67562 5.07904 5.19224 4.56573 5.84442 4.3161C6.2863 4.15255 6.75286 4.06561 7.22399 4.05903C8.01008 4.02349 8.23078 4.01357 10.2452 4.01357C12.2596 4.01357 12.4662 4.01357 13.2655 4.05903C13.737 4.0647 14.204 4.15167 14.6459 4.3161C14.9674 4.44031 15.2594 4.63037 15.5031 4.87407C15.7468 5.11777 15.9368 5.40973 16.061 5.73122C16.2235 6.1734 16.3104 6.63977 16.3181 7.11079C16.3537 7.89688 16.3627 8.11758 16.3627 10.132C16.3627 12.1455 16.3627 12.3621 16.3272 13.1523H16.3181V13.1515Z" fill="white"/>
</svg>
