<svg width="21" height="21" viewBox="0 0 21 21" fill="none" xmlns="http://www.w3.org/2000/svg">
<g clip-path="url(#clip0_651_1255)">
<path d="M6.52168 18.8195C14.0081 18.8195 18.1034 12.6164 18.1034 7.24646C18.1034 7.07288 18.1034 6.89681 18.096 6.72323C18.8933 6.14605 19.5814 5.43146 20.1281 4.61295C19.3834 4.94134 18.5941 5.15776 17.786 5.25521C18.6372 4.74641 19.2748 3.94586 19.5801 3.00235C18.7804 3.47613 17.9051 3.80873 16.9925 3.98557C16.379 3.33218 15.5671 2.89933 14.6827 2.75407C13.7983 2.6088 12.8906 2.75923 12.1003 3.18205C11.3101 3.60487 10.6812 4.27648 10.3113 5.09286C9.94139 5.90924 9.85099 6.82482 10.0541 7.69778C8.43574 7.61663 6.8525 7.19621 5.40708 6.46378C3.96166 5.73135 2.68634 4.70327 1.66383 3.44622C1.14474 4.34276 0.986324 5.40325 1.22075 6.41235C1.45518 7.42145 2.06487 8.3035 2.92603 8.87938C2.28072 8.85746 1.6496 8.68418 1.08356 8.37351V8.42931C1.08468 9.36849 1.41003 10.2785 2.00464 11.0055C2.59924 11.7325 3.42663 12.2319 4.34693 12.4192C3.99761 12.5155 3.63676 12.5635 3.27443 12.5618C3.019 12.5626 2.76407 12.5389 2.51315 12.4912C2.77326 13.2996 3.27973 14.0065 3.96163 14.5128C4.64354 15.019 5.46671 15.2993 6.31586 15.3144C4.87333 16.4474 3.09143 17.0619 1.25715 17.0589C0.933935 17.0602 0.610949 17.0416 0.290039 17.0031C2.15174 18.19 4.31382 18.8202 6.52168 18.8195Z" fill="white"/>
</g>
<defs>
<clipPath id="clip0_651_1255">
<rect width="19.8381" height="19.8381" fill="white" transform="translate(0.290039 0.221191)"/>
</clipPath>
</defs>
</svg>
