<svg width="15" height="14" viewBox="0 0 15 14" fill="none" xmlns="http://www.w3.org/2000/svg">
<g clip-path="url(#clip0_660_1343)">
<path fill-rule="evenodd" clip-rule="evenodd" d="M3.13375 0.995361C2.78229 0.995361 2.44524 1.13498 2.19672 1.38349C1.94821 1.632 1.80859 1.96906 1.80859 2.32051V11.4463C1.80859 11.7977 1.94821 12.1348 2.19672 12.3833C2.44524 12.6318 2.78229 12.7714 3.13375 12.7714H12.2595C12.611 12.7714 12.948 12.6318 13.1965 12.3833C13.445 12.1348 13.5847 11.7977 13.5847 11.4463V2.32051C13.5847 1.96906 13.445 1.632 13.1965 1.38349C12.948 1.13497 12.611 0.995361 12.2595 0.995361H3.13375ZM3.13375 -0.00463867C2.51708 -0.00463867 1.92567 0.240332 1.48961 0.676382C1.05356 1.11243 0.808594 1.70384 0.808594 2.32051V11.4463C0.808594 12.0629 1.05356 12.6544 1.48961 13.0904C1.92567 13.5265 2.51708 13.7714 3.13375 13.7714H12.2595C12.8762 13.7714 13.4676 13.5265 13.9036 13.0904C14.3397 12.6544 14.5847 12.0629 14.5847 11.4463V2.32051C14.5847 1.70384 14.3397 1.11243 13.9036 0.676382C13.4676 0.240332 12.8762 -0.00463867 12.2595 -0.00463867H3.13375Z" fill="white"/>
<path fill-rule="evenodd" clip-rule="evenodd" d="M4.95933 2.5979C5.31009 2.5979 5.59444 2.88225 5.59444 3.23301V10.4743C5.59444 10.8251 5.31009 11.1094 4.95933 11.1094C4.60857 11.1094 4.32422 10.8251 4.32422 10.4743V3.23301C4.32422 2.88225 4.60857 2.5979 4.95933 2.5979Z" fill="white"/>
<path fill-rule="evenodd" clip-rule="evenodd" d="M7.69761 6.24829C8.04837 6.24829 8.33272 6.53264 8.33272 6.8834V10.52C8.33272 10.8708 8.04837 11.1551 7.69761 11.1551C7.34685 11.1551 7.0625 10.8708 7.0625 10.52V6.8834C7.0625 6.53264 7.34685 6.24829 7.69761 6.24829Z" fill="white"/>
<path fill-rule="evenodd" clip-rule="evenodd" d="M10.4349 4.4231C10.7857 4.4231 11.07 4.70744 11.07 5.05821V10.5337C11.07 10.8844 10.7857 11.1688 10.4349 11.1688C10.0842 11.1688 9.7998 10.8844 9.7998 10.5337V5.05821C9.7998 4.70744 10.0842 4.4231 10.4349 4.4231Z" fill="white"/>
</g>
<defs>
<clipPath id="clip0_660_1343">
<rect width="13.4485" height="13.4485" fill="white" transform="translate(0.972656 0.159058)"/>
</clipPath>
</defs>
</svg>
