<svg width="30" height="18" viewBox="0 0 30 18" fill="none" xmlns="http://www.w3.org/2000/svg">
<path d="M26.0559 16.2438L26.0559 16.2439C26.2062 16.3941 26.3845 16.5133 26.5808 16.5946C26.7771 16.6759 26.9875 16.7178 27.2 16.7178C27.4124 16.7178 27.6228 16.6759 27.8191 16.5946C28.0154 16.5133 28.1938 16.3941 28.344 16.2439C28.4942 16.0936 28.6134 15.9153 28.6947 15.719C28.776 15.5227 28.8179 15.3123 28.8179 15.0998C28.8179 14.8874 28.776 14.677 28.6947 14.4807C28.6134 14.2844 28.4942 14.106 28.344 13.9558L16.1449 1.75668C16.1447 1.7565 16.1445 1.75632 16.1444 1.75614C15.9943 1.60584 15.8161 1.48658 15.6199 1.40518C15.4235 1.32368 15.213 1.28173 15.0003 1.28173C14.7877 1.28173 14.5771 1.32368 14.3807 1.40518C14.1846 1.48658 14.0063 1.60584 13.8563 1.75614L26.0559 16.2438ZM26.0559 16.2438L15.0003 5.18631L3.94526 16.2433C3.94516 16.2434 3.94506 16.2435 3.94496 16.2436C3.79485 16.394 3.61656 16.5134 3.42029 16.5948C3.22388 16.6763 3.01332 16.7183 2.80068 16.7183C2.58804 16.7183 2.37749 16.6763 2.18108 16.5948C1.9849 16.5134 1.8067 16.3942 1.65664 16.2439C1.50634 16.0938 1.38708 15.9156 1.30568 15.7194C1.22418 15.523 1.18223 15.3125 1.18223 15.0998C1.18223 14.8872 1.22418 14.6766 1.30568 14.4802C1.38712 14.2839 1.50647 14.1057 1.65689 13.9555C1.65698 13.9554 1.65708 13.9553 1.65717 13.9553L13.8557 1.75668L26.0559 16.2438Z" fill="#F9A31A" stroke="#F9A31A" stroke-width="1.2"/>
</svg>
