<svg width="12" height="11" viewBox="0 0 12 11" fill="none" xmlns="http://www.w3.org/2000/svg">
<g clip-path="url(#clip0_651_1175)">
<path d="M5.39976 0.0541992C4.16113 0.0541992 2.97323 0.546244 2.09738 1.42209C1.22154 2.29794 0.729492 3.48584 0.729492 4.72447C0.729492 5.9631 1.22154 7.151 2.09738 8.02685C2.97323 8.90269 4.16113 9.39474 5.39976 9.39474C6.6384 9.39474 7.8263 8.90269 8.70214 8.02685C9.57799 7.151 10.07 5.9631 10.07 4.72447C10.07 3.48584 9.57799 2.29794 8.70214 1.42209C7.8263 0.546244 6.6384 0.0541992 5.39976 0.0541992V0.0541992ZM1.30549 5.07733H2.60798C2.62874 5.54955 2.69464 6.01865 2.80517 6.47842H1.6843C1.47529 6.03779 1.34698 5.56325 1.30549 5.07733ZM5.75263 2.27517V0.671713C6.2527 0.861754 6.66362 1.23195 6.90463 1.70955C7.01101 1.88962 7.10493 2.07695 7.18484 2.26998L5.75263 2.27517ZM7.42355 2.97571C7.54394 3.43392 7.61555 3.90354 7.6363 4.37679H5.75263V2.97571H7.42355ZM5.0469 0.671713V2.27517H3.61468C3.69473 2.08198 3.78837 1.8947 3.8949 1.71474C4.13488 1.23518 4.54593 0.863018 5.0469 0.671713ZM5.0469 2.97571V4.37679H3.16841C3.18917 3.90354 3.26078 3.43392 3.38117 2.97571H5.0469ZM2.60798 4.3716H1.30549C1.34698 3.88569 1.47529 3.41115 1.6843 2.97052H2.80517C2.69443 3.4301 2.62839 3.89931 2.60798 4.3716ZM3.16841 5.07733H5.0469V6.47842H3.38117C3.2608 6.02025 3.18948 5.55058 3.16841 5.07733ZM5.05209 7.15301V8.75647C4.55201 8.56643 4.1411 8.19623 3.90009 7.71863C3.79356 7.53868 3.69992 7.35139 3.61987 7.1582L5.05209 7.15301ZM5.75263 8.75647V7.17896H7.18484C7.10479 7.37215 7.01115 7.55943 6.90463 7.73939C6.66362 8.21699 6.2527 8.58719 5.75263 8.77723V8.75647ZM5.75263 6.45247V5.05139H7.63111C7.61005 5.52464 7.53873 5.9943 7.41836 6.45247H5.75263ZM8.19674 5.05139H9.49922C9.45773 5.53731 9.32943 6.01185 9.12041 6.45247H7.99436C8.10333 6.00101 8.16923 5.54073 8.19155 5.07733L8.19674 5.05139ZM8.19674 4.35085C8.17297 3.8871 8.10521 3.42665 7.99436 2.97571H9.11522C9.32435 3.41679 9.45252 3.89109 9.49403 4.37679L8.19674 4.35085ZM8.71565 2.27517H7.78679C7.61872 1.80311 7.37512 1.36147 7.06549 0.967497C7.71123 1.25735 8.27212 1.7075 8.6949 2.27517H8.71565ZM3.73403 0.967497C3.4244 1.36147 3.1808 1.80311 3.01274 2.27517H2.10463C2.5274 1.7075 3.0883 1.25735 3.73403 0.967497ZM2.09944 7.19452H3.01274C3.1808 7.66658 3.4244 8.10822 3.73403 8.5022C3.08651 8.20798 2.52544 7.75233 2.10463 7.17896L2.09944 7.19452ZM7.0603 8.5022C7.36993 8.10822 7.61353 7.66658 7.7816 7.19452H8.6949C8.26954 7.75459 7.70887 8.19741 7.06549 8.48144L7.0603 8.5022Z" fill="white"/>
</g>
<defs>
<clipPath id="clip0_651_1175">
<rect width="10.3784" height="10.3784" fill="white" transform="translate(0.729492 0.0541992)"/>
</clipPath>
</defs>
</svg>
