<svg width="21" height="21" viewBox="0 0 21 21" fill="none" xmlns="http://www.w3.org/2000/svg">
<path d="M10.6561 2.37017C6.10605 2.37017 2.39772 6.0785 2.39772 10.6285C2.39772 12.0868 2.78105 13.5035 3.49772 14.7535L2.33105 19.0368L6.70605 17.8868C7.91439 18.5452 9.27272 18.8952 10.6561 18.8952C15.2061 18.8952 18.9144 15.1868 18.9144 10.6368C18.9144 8.4285 18.0561 6.3535 16.4977 4.79517C15.7337 4.02344 14.8237 3.41156 13.8208 2.99521C12.8178 2.57886 11.742 2.36638 10.6561 2.37017ZM10.6644 3.76183C12.4977 3.76183 14.2144 4.4785 15.5144 5.7785C16.1524 6.4163 16.6582 7.17377 17.0029 8.00747C17.3475 8.84117 17.5242 9.73471 17.5227 10.6368C17.5227 14.4202 14.4394 17.4952 10.6561 17.4952C9.42272 17.4952 8.21439 17.1702 7.16439 16.5368L6.91439 16.3952L4.31439 17.0785L5.00605 14.5452L4.83939 14.2785C4.15101 13.1857 3.7869 11.92 3.78939 10.6285C3.79772 6.84517 6.87272 3.76183 10.6644 3.76183ZM7.73105 6.81183C7.59772 6.81183 7.37272 6.86183 7.18105 7.07017C6.99772 7.2785 6.45605 7.78683 6.45605 8.79517C6.45605 9.81183 7.19772 10.7868 7.28939 10.9285C7.40605 11.0702 8.75605 13.1535 10.8311 14.0368C11.3227 14.2618 11.7061 14.3868 12.0061 14.4785C12.4977 14.6368 12.9477 14.6118 13.3061 14.5618C13.7061 14.5035 14.5227 14.0618 14.6977 13.5785C14.8727 13.0952 14.8727 12.6868 14.8227 12.5952C14.7644 12.5118 14.6311 12.4618 14.4227 12.3702C14.2144 12.2535 13.1977 11.7535 13.0144 11.6868C12.8227 11.6202 12.7061 11.5868 12.5477 11.7868C12.4144 11.9952 12.0144 12.4618 11.8977 12.5952C11.7727 12.7368 11.6561 12.7535 11.4561 12.6535C11.2394 12.5452 10.5727 12.3285 9.78939 11.6285C9.17272 11.0785 8.76439 10.4035 8.63939 10.1952C8.53939 9.99517 8.63105 9.87017 8.73105 9.7785C8.82272 9.68683 8.95605 9.53683 9.03939 9.41183C9.14772 9.29517 9.18105 9.2035 9.24772 9.07017C9.31439 8.9285 9.28105 8.81183 9.23105 8.71183C9.18105 8.62017 8.76439 7.58683 8.58939 7.1785C8.42272 6.7785 8.25605 6.8285 8.12272 6.82017C8.00605 6.82017 7.87272 6.81183 7.73105 6.81183Z" fill="white"/>
</svg>
